# xmcd
#
# Track frame offsets: 
#        150
#        9941
#        19386
#        30798
#        41190
#        51571
#        61009
#        75388
#        87559
#        99957
#        109127
#        125794
#        138853
#        145873
#        156356
#        164219
#
# Disc length: 2325 seconds
#
# Revision: 1
# Processed by: cddbd v1.5.2PL0 Copyright (c) Steve Scherf et al.
# Submitted via: ExactAudioCopy v0.95a5
#
DISCID=d4091310
DTITLE=Gus Viseur - De Clichy A Broadway
DYEAR=1955
DGENRE=Jazz
TTITLE0=Le Bal Du P'tit Jardin
TTITLE1=Jeannette
TTITLE2=El Victor
TTITLE3=Paso Del Fuego
TTITLE4=Ballade Rabouine
TTITLE5=5 Juin
TTITLE6=Nuages
TTITLE7=Lorsque Django Jouait
TTITLE8=Swing Valse
TTITLE9=Flambee Montalbanaise
TTITLE10=46eme Avenue
TTITLE11=Genevieve
TTITLE12=Paris Je T'aime
TTITLE13=Menilmontant
TTITLE14=Quel Temps Fait-il A Paris
TTITLE15=Revoir Paris
EXTD=
EXTT0=
EXTT1=
EXTT2=
EXTT3=
EXTT4=
EXTT5=
EXTT6=
EXTT7=
EXTT8=
EXTT9=
EXTT10=
EXTT11=
EXTT12=
EXTT13=
EXTT14=
EXTT15=
PLAYORDER=
